<svg xmlns="http://www.w3.org/2000/svg" viewBox="0 0 1920 1080" role="img" aria-labelledby="title desc">
  <title id="title">BeezaOffice Agent Room placeholder</title>
  <desc id="desc">A clean electric-blue office mockup to replace with a custom Agent Room image.</desc>
  <defs>
    <linearGradient id="sky" x1="0" y1="0" x2="1" y2="1">
      <stop offset="0" stop-color="#f7fbff"/>
      <stop offset="1" stop-color="#e7f1ff"/>
    </linearGradient>
    <linearGradient id="glass" x1="0" y1="0" x2="0" y2="1">
      <stop offset="0" stop-color="#d9ebff" stop-opacity=".82"/>
      <stop offset="1" stop-color="#a7ccff" stop-opacity=".35"/>
    </linearGradient>
    <linearGradient id="desk" x1="0" y1="0" x2="1" y2="0">
      <stop offset="0" stop-color="#173b69"/>
      <stop offset="1" stop-color="#245a9f"/>
    </linearGradient>
    <filter id="shadow" x="-30%" y="-30%" width="160%" height="160%">
      <feDropShadow dx="0" dy="18" stdDeviation="22" flood-color="#173b69" flood-opacity=".18"/>
    </filter>
  </defs>
  <rect width="1920" height="1080" fill="url(#sky)"/>
  <rect x="80" y="70" width="1760" height="850" rx="44" fill="#ffffff" filter="url(#shadow)"/>
  <rect x="118" y="110" width="1090" height="520" rx="28" fill="url(#glass)"/>
  <path d="M118 455 C350 310 570 560 820 390 C1010 260 1100 330 1208 250 V630 H118Z" fill="#8bbcff" opacity=".34"/>
  <g opacity=".3" stroke="#ffffff" stroke-width="5">
    <path d="M390 110V630"/><path d="M665 110V630"/><path d="M940 110V630"/>
  </g>
  <rect x="1270" y="112" width="520" height="205" rx="30" fill="#f1f7ff" stroke="#dce9f7" stroke-width="4"/>
  <circle cx="1335" cy="176" r="22" fill="#1268ff"/>
  <text x="1380" y="185" font-family="Arial, sans-serif" font-size="34" font-weight="700" fill="#173b69">AGENT ROOM</text>
  <text x="1310" y="245" font-family="Arial, sans-serif" font-size="24" fill="#6b819c">Replace this background later</text>
  <rect x="1270" y="354" width="520" height="276" rx="30" fill="#fbfdff" stroke="#dce9f7" stroke-width="4"/>
  <rect x="1310" y="397" width="300" height="22" rx="11" fill="#1268ff" opacity=".18"/>
  <rect x="1310" y="447" width="420" height="17" rx="8" fill="#9fb7d3" opacity=".36"/>
  <rect x="1310" y="488" width="370" height="17" rx="8" fill="#9fb7d3" opacity=".28"/>
  <rect x="1310" y="529" width="395" height="17" rx="8" fill="#9fb7d3" opacity=".22"/>
  <rect x="1310" y="570" width="230" height="17" rx="8" fill="#dc285c" opacity=".24"/>
  <g filter="url(#shadow)">
    <rect x="290" y="655" width="970" height="78" rx="28" fill="url(#desk)"/>
    <rect x="370" y="733" width="48" height="190" rx="16" fill="#173b69"/>
    <rect x="1135" y="733" width="48" height="190" rx="16" fill="#173b69"/>
    <rect x="640" y="515" width="330" height="200" rx="20" fill="#102a4e"/>
    <rect x="662" y="537" width="286" height="155" rx="10" fill="#e9f3ff"/>
    <path d="M695 650 L770 590 L830 630 L900 560" fill="none" stroke="#1268ff" stroke-width="12" stroke-linecap="round" stroke-linejoin="round"/>
    <rect x="780" y="715" width="50" height="52" rx="10" fill="#102a4e"/>
    <rect x="700" y="765" width="210" height="24" rx="12" fill="#173b69"/>
  </g>
  <g>
    <rect x="1380" y="690" width="320" height="230" rx="28" fill="#f7fbff" stroke="#dce9f7" stroke-width="4"/>
    <rect x="1424" y="740" width="232" height="16" rx="8" fill="#1268ff" opacity=".28"/>
    <rect x="1424" y="785" width="190" height="16" rx="8" fill="#9fb7d3" opacity=".28"/>
    <rect x="1424" y="830" width="210" height="16" rx="8" fill="#9fb7d3" opacity=".22"/>
    <circle cx="1445" cy="884" r="15" fill="#20a66a"/>
    <text x="1480" y="894" font-family="Arial, sans-serif" font-size="24" fill="#526b88">Ready for custom art</text>
  </g>
  <rect x="0" y="920" width="1920" height="160" fill="#dfe9f4"/>
  <path d="M0 920 H1920" stroke="#c6d6e8" stroke-width="6"/>
  <text x="960" y="1018" text-anchor="middle" font-family="Arial, sans-serif" font-size="26" font-weight="700" fill="#526b88">app/static/assets/agent-rooms/&lt;agent-key&gt;/background.webp</text>
</svg>
